<?xml version="1.0" encoding="UTF-8"?>
<svg xmlns="http://www.w3.org/2000/svg" xmlns:xlink="http://www.w3.org/1999/xlink" width="16px" height="16px" viewBox="0 0 16 16" version="1.1">
<g id="surface1">
<path style=" stroke:none;fill-rule:nonzero;fill:rgb(0%,0%,0%);fill-opacity:1;" d="M 14.414062 8 C 14.414062 9.417969 14.0625 10.726562 13.363281 11.929688 C 12.660156 13.132812 11.707031 14.085938 10.503906 14.789062 C 9.300781 15.488281 7.992188 15.839844 6.574219 15.839844 L 4.792969 15.839844 C 4.6875 15.839844 4.601562 15.804688 4.535156 15.738281 C 4.46875 15.671875 4.433594 15.585938 4.433594 15.484375 L 4.433594 8.679688 L 2.042969 9.414062 C 2.019531 9.421875 1.984375 9.425781 1.941406 9.425781 C 1.867188 9.425781 1.796875 9.402344 1.730469 9.355469 C 1.632812 9.28125 1.585938 9.1875 1.585938 9.066406 L 1.585938 7.640625 C 1.585938 7.46875 1.671875 7.355469 1.839844 7.296875 L 4.4375 6.503906 L 4.4375 5.46875 L 2.042969 6.203125 C 2.019531 6.210938 1.988281 6.214844 1.941406 6.214844 C 1.867188 6.214844 1.796875 6.195312 1.730469 6.148438 C 1.636719 6.074219 1.585938 5.976562 1.585938 5.859375 L 1.585938 4.433594 C 1.585938 4.261719 1.671875 4.148438 1.84375 4.089844 L 4.4375 3.296875 L 4.4375 0.511719 C 4.4375 0.410156 4.472656 0.324219 4.539062 0.257812 C 4.605469 0.191406 4.691406 0.15625 4.796875 0.15625 L 6.578125 0.15625 C 6.679688 0.15625 6.765625 0.191406 6.832031 0.257812 C 6.902344 0.324219 6.933594 0.410156 6.933594 0.511719 L 6.933594 2.53125 L 11.109375 1.238281 C 11.222656 1.203125 11.328125 1.21875 11.421875 1.292969 C 11.519531 1.367188 11.566406 1.464844 11.566406 1.585938 L 11.566406 3.007812 C 11.566406 3.179688 11.480469 3.296875 11.308594 3.355469 L 6.929688 4.703125 L 6.929688 5.738281 L 11.105469 4.449219 C 11.21875 4.410156 11.324219 4.429688 11.417969 4.503906 C 11.515625 4.578125 11.5625 4.675781 11.5625 4.792969 L 11.5625 6.21875 C 11.5625 6.390625 11.476562 6.503906 11.308594 6.566406 L 6.929688 7.910156 L 6.929688 13.335938 C 8.328125 13.238281 9.507812 12.679688 10.472656 11.65625 C 11.4375 10.628906 11.921875 9.414062 11.921875 8 C 11.921875 7.898438 11.953125 7.8125 12.019531 7.746094 C 12.089844 7.679688 12.171875 7.644531 12.277344 7.644531 L 14.058594 7.644531 C 14.164062 7.644531 14.246094 7.679688 14.316406 7.746094 C 14.378906 7.8125 14.414062 7.894531 14.414062 8 Z M 14.414062 8 "/>
</g>
</svg>
